<svg id="Layer_1" data-name="Layer 1" xmlns="http://www.w3.org/2000/svg" viewBox="0 0 1080 1080"><defs><style>.cls-1{font-size:91.69px;fill:#4dbfb9;font-family:Montserrat-ExtraBold, Montserrat;letter-spacing:0.1em;}.cls-1,.cls-3{font-weight:700;}.cls-2{letter-spacing:0.1em;}.cls-3{font-size:21.42px;font-family:Montserrat-Bold, Montserrat;letter-spacing:0.39em;}.cls-10,.cls-3{fill:#287ab4;}.cls-4{letter-spacing:0.4em;}.cls-5{letter-spacing:0.41em;}.cls-6{letter-spacing:0.41em;}.cls-7{letter-spacing:0.4em;}.cls-8{letter-spacing:0.4em;}.cls-9{letter-spacing:0.38em;}.cls-11{fill:#9566ac;}.cls-12{fill:#3ab86f;}.cls-13{fill:#d6394c;}.cls-14{fill:#ffbb0e;}.cls-15{fill:#51a2d9;}.cls-16{fill:none;}</style></defs><title>kairos logo-02</title><text class="cls-1" transform="translate(729.56 565.15)">F<tspan class="cls-2" x="67.94" y="0">S</tspan></text><text class="cls-3" transform="translate(409.05 590.88)">F<tspan class="cls-4" x="21.96" y="0">u</tspan><tspan class="cls-5" x="45.25" y="0">n</tspan><tspan class="cls-6" x="68.75" y="0">c</tspan><tspan class="cls-7" x="90.15" y="0">tional </tspan><tspan class="cls-8" x="220.48" y="0">V</tspan><tspan class="cls-4" x="244.92" y="0">isual Sui</tspan><tspan class="cls-9" x="415.16" y="0">t</tspan><tspan class="cls-4" x="432.69" y="0">e</tspan></text><path class="cls-10" d="M335.93,546.75,340,550l-9.59,9.58-11.13-9.68c-2.42-2.1-4.27-3.74-5.56-4.9s-2.32-2.14-3.11-2.94c.05,1.08.09,2.18.14,3.32s.07,2.28.07,3.4v13.43H296.27v-46.8h14.55v10.84c0,1.45,0,2.87-.07,4.27s-.12,2.71-.21,3.92c.93-.84,2.07-1.88,3.39-3.11s3.06-2.74,5.21-4.52l13.5-11.4h21l-17.9,13.44c-1.54,1.16-2.9,2.19-4.09,3.07s-2.25,1.66-3.19,2.31-1.78,1.23-2.55,1.75-1.53,1-2.27,1.47q2,1.39,4.9,3.5T335.93,546.75Z"/><polygon class="cls-11" points="355.31 562.21 333.41 562.21 330.41 559.59 340 550 355.31 562.21"/><path class="cls-11" d="M435.79,554.28l-7.93,7.93h-41l8.74-12h16.12c1.52,0,2.83.05,4,.14-.66-.84-1.41-1.89-2.28-3.18s-1.69-2.48-2.48-3.6l-8.39-12.38-22,31.06H363.41l30-42.32a16.26,16.26,0,0,1,3.71-3.64,9.47,9.47,0,0,1,5.66-1.61,9.6,9.6,0,0,1,5.5,1.51,14.3,14.3,0,0,1,3.74,3.74Z"/><polygon class="cls-12" points="441.26 562.21 427.86 562.21 435.79 554.28 441.26 562.21"/><polygon class="cls-12" points="468.12 521.94 468.12 562.21 453.65 562.21 453.65 536.42 468.12 521.94"/><polygon class="cls-11" points="468.12 515.41 468.12 521.94 453.65 536.42 453.65 515.41 468.12 515.41"/><path class="cls-13" d="M555.15,562.21H535.78l-7.07-8.41,23.44-23.44c0,.57.07,1.16.07,1.77a15.89,15.89,0,0,1-.84,5.18,14.58,14.58,0,0,1-2.41,4.4,14.21,14.21,0,0,1-3.85,3.32A15.75,15.75,0,0,1,540,547a34.5,34.5,0,0,1,2.66,2.3c1,.94,2.28,2.22,3.91,3.85Z"/><path class="cls-13" d="M627.49,520.45q-8.57-5.81-25.63-5.81t-25.67,5.81q-8.54,5.81-8.53,18.32t8.5,18.4q8.49,5.8,25.7,5.8t25.67-5.8q8.54-5.8,8.53-18.4T627.49,520.45Zm-6.88,24.44a7.77,7.77,0,0,1-3.39,3.67,16.36,16.36,0,0,1-6.12,1.79,92.93,92.93,0,0,1-18.47,0,16.25,16.25,0,0,1-6.12-1.79,7.77,7.77,0,0,1-3.39-3.67,18.33,18.33,0,0,1,0-12.23,7.62,7.62,0,0,1,3.39-3.64,16.85,16.85,0,0,1,6.12-1.75,92.93,92.93,0,0,1,18.47,0,17,17,0,0,1,6.12,1.75,7.62,7.62,0,0,1,3.39,3.64,18.5,18.5,0,0,1,0,12.23Z"/><polygon class="cls-14" points="714.12 515.41 704.82 527.59 674.81 527.59 686.98 515.41 714.12 515.41"/><path class="cls-14" d="M715.38,546.89a17.49,17.49,0,0,1-1.12,6.43,11.35,11.35,0,0,1-3.56,4.83,17.2,17.2,0,0,1-6.27,3,34.65,34.65,0,0,1-9.12,1.05H651.73l9.31-12h35.39a6.84,6.84,0,0,0,3.77-.8,2.93,2.93,0,0,0,1.2-2.62,2.84,2.84,0,0,0-1.2-2.59,7.15,7.15,0,0,0-3.77-.77H671a27.82,27.82,0,0,1-7.84-1,17.72,17.72,0,0,1-2.3-.84l8.06-8.07a8.23,8.23,0,0,0,3.48.59h25.46q8.59,0,13.08,3.18T715.38,546.89Z"/><path class="cls-15" d="M330,453.15l-13.41,13.41q-1.41-.1-2.82-.15a63.41,63.41,0,0,0-24.49,3.85,51.64,51.64,0,0,0-20.6,13.95,51.07,51.07,0,0,0-11.42,22.13,65.85,65.85,0,0,0-1.43,21l-16.6,16.6a85.63,85.63,0,0,1-3.06-12.55l-18.69-4.89V507.85l18.33,1a63,63,0,0,1,2.72-11.43L223,487.13,231.31,473l16.75,7a56.23,56.23,0,0,1,7.55-7.72l-10.12-12.82,13.71-7.6L272,462.55a67.44,67.44,0,0,1,10.42-3.23l-4.27-12.63,16-1,7.79,11.92a88.13,88.13,0,0,1,11.36,1.14l.88-10.63,15.76,4.54Z"/><path class="cls-10" d="M388.3,494.59l-5,7.07-.6.85c-1.31-1.54-2.6-3.08-4-4.54a106.4,106.4,0,0,0-18.63-16,97.72,97.72,0,0,0-22-11,82.41,82.41,0,0,0-21.43-4.49L330,453.15,332.81,464a106.8,106.8,0,0,1,10.71,4.74l4.91-7.63,13.81,8.78-1.41,9.65q4.65,3.5,8.92,7.4l0,0h0l7.78-4.14Z"/><polygon class="cls-15" points="223.15 550.6 238.35 544.81 226.2 556.97 223.15 550.6"/><path class="cls-11" d="M397.57,592.49l-11.64,11.65-.69-.54a58.18,58.18,0,0,1-8,6l.84,2.35-12.91,12.91L360,617.1a72.06,72.06,0,0,1-11.25,2.06l-.48,14.71H330.35l-3.52-15.34a97.87,97.87,0,0,1-12.9-2.91l-7.18,13.56-19.26-7.86,3.28-15.7q-2-1.15-4-2.4l9.41-9.41a97.17,97.17,0,0,0,20.1,11.13,88.71,88.71,0,0,0,23.9,6.14,69.46,69.46,0,0,0,24.59-1.51,53.21,53.21,0,0,0,21.76-11.26,49.45,49.45,0,0,0,8.18-9.16l.11-.2,1.14,1.47Z"/><polygon class="cls-12" points="382.02 623.09 368.26 629.62 365.16 624.91 378.07 612 382.02 623.09"/><polygon class="cls-12" points="404.19 601.04 395.85 612 385.93 604.14 397.57 592.49 404.19 601.04"/><path class="cls-10" d="M382.3,503.05l-.28.4,0-.05v0a98.6,98.6,0,0,0-13.87-12.73c-.73-.54-1.46-1.08-2.19-1.6l-.05,0a88,88,0,0,0-29.15-13.69,67.1,67.1,0,0,0-27.42-1.49l5.06-5.06a79.32,79.32,0,0,1,23.06,4.09,96.72,96.72,0,0,1,21.84,10.37,105.86,105.86,0,0,1,18.86,15.25c1.44,1.45,2.79,3,4.15,4.47Z"/><path class="cls-10" d="M303,587l-4.83,4.84A101.76,101.76,0,0,1,279,574c-10.21-12.37-17.48-27.36-19.63-43.22q-.45-3.15-.62-6.34l10.66-10.66a59.88,59.88,0,0,0-.54,11.41C269.93,549.18,283.62,571.88,303,587Z"/><path class="cls-11" d="M394.53,588.56c-.07.11-.13.22-.2.32a48.47,48.47,0,0,1-8.32,8.79,52.17,52.17,0,0,1-21.59,10.42,68.42,68.42,0,0,1-24,1,87.07,87.07,0,0,1-23.21-6.39,101.92,101.92,0,0,1-19.09-10.85L303,587c13.89,10.89,30.68,17.88,47.81,18.67,11.27.52,21.17-1.82,29.26-6.24a45.3,45.3,0,0,0,13.88-11.73Z"/><path class="cls-15" d="M314.35,468.82l-5.06,5.06c-20.86,3.41-36.68,17.79-39.89,39.89l-10.66,10.66A61.87,61.87,0,0,1,260.17,507a48.24,48.24,0,0,1,10.65-21,49.15,49.15,0,0,1,19.43-13.31,63.7,63.7,0,0,1,23.48-4Z"/><line class="cls-16" x1="258.74" y1="524.43" x2="255.85" y2="527.32"/><line class="cls-16" x1="239.25" y1="543.92" x2="238.36" y2="544.81"/><line class="cls-16" x1="316.61" y1="466.56" x2="314.35" y2="468.82"/><path class="cls-10" d="M296.19,593.81l-9.41,9.41q-4.2-2.62-8.19-5.63l-13.78,9.15-16.29-15.08,10.66-12.42a112.61,112.61,0,0,1-8.73-11.8l-18.14,2.32L226.2,557l12.16-12.16,1-.4a4,4,0,0,1-.15-.49l16.6-16.6c.11,1.3.25,2.59.42,3.88,2.34,16.52,10,31.95,20.54,44.61a104.66,104.66,0,0,0,18,17Z"/><line class="cls-16" x1="298.12" y1="591.88" x2="296.19" y2="593.81"/><path class="cls-12" d="M552.15,530.36,528.71,553.8l-3.35-4H503.12v12.39H488.64V538.29h40.7a10.76,10.76,0,0,0,5.67-1.4,4.32,4.32,0,0,0,2.31-3.85,4.55,4.55,0,0,0-2.1-4.09,10.7,10.7,0,0,0-5.88-1.36h-40.7l9.44-12.18h30.08a48.53,48.53,0,0,1,8.25.74,25.36,25.36,0,0,1,7.77,2.62,16.75,16.75,0,0,1,5.76,5.11A13,13,0,0,1,552.15,530.36Z"/><path class="cls-13" d="M687,515.41l-12.17,12.18h-2.44a7.77,7.77,0,0,0-3.75.7,2.64,2.64,0,0,0-1.22,2.51,2.76,2.76,0,0,0,1.22,2.56l.27.14-8.06,8.07h0a14.36,14.36,0,0,1-3.14-1.88,10.74,10.74,0,0,1-3.22-4.24,13.92,13.92,0,0,1-1.05-5.49,15.22,15.22,0,0,1,1.15-6,11.65,11.65,0,0,1,3.57-4.58,17.61,17.61,0,0,1,6.23-2.94,34.68,34.68,0,0,1,9.13-1.05Z"/></svg>