<svg id="Layer_1" data-name="Layer 1" xmlns="http://www.w3.org/2000/svg" viewBox="0 0 1003.69 276.91"><defs><style>.cls-1{fill:#287ab4;}.cls-2{fill:#9566ac;}.cls-3{fill:#3ab86f;}.cls-4{fill:#d6394c;}.cls-5{fill:#ffbb0e;}.cls-6{fill:#51a2d9;}.cls-7{fill:none;}.cls-8{fill:coral;}.cls-9{fill:#4dbfb9;}</style></defs><title>Untitled-2</title><path class="cls-1" d="M1040.44,805.74v8.15h14.28v5.73h-14.28v11.23h-7.13V800h23.31v5.73Z" transform="translate(-748.31 -611.43)"/><path class="cls-1" d="M1093.05,807.15v23.7h-6.52V828a9.59,9.59,0,0,1-7.36,3.18c-5.94,0-10.13-3.35-10.13-10.67V807.15h6.87v12.38c0,4,1.77,5.73,4.81,5.73s5.46-2,5.46-6.39V807.15Z" transform="translate(-748.31 -611.43)"/><path class="cls-1" d="M1132.49,817.28v13.57h-6.88V818.34c0-3.83-1.76-5.6-4.8-5.6-3.3,0-5.68,2-5.68,6.39v11.72h-6.88v-23.7h6.57v2.77a10.38,10.38,0,0,1,7.84-3.12C1128.26,806.8,1132.49,810.06,1132.49,817.28Z" transform="translate(-748.31 -611.43)"/><path class="cls-1" d="M1146,819c0-7.14,5.51-12.2,13.22-12.2,5,0,8.9,2.15,10.62,6l-5.33,2.87a5.92,5.92,0,0,0-5.33-3.26c-3.49,0-6.22,2.42-6.22,6.56s2.73,6.57,6.22,6.57a5.84,5.84,0,0,0,5.33-3.26l5.33,2.9c-1.72,3.79-5.64,6-10.62,6C1151.52,831.21,1146,826.14,1146,819Z" transform="translate(-748.31 -611.43)"/><path class="cls-1" d="M1198.27,829.71a9.88,9.88,0,0,1-5.6,1.5c-5.6,0-8.86-2.87-8.86-8.51V813h-3.65v-5.28h3.65v-5.77h6.88v5.77h5.9V813h-5.9v9.65c0,2,1.1,3.13,3,3.13a4.62,4.62,0,0,0,2.77-.88Z" transform="translate(-748.31 -611.43)"/><path class="cls-1" d="M1210.12,800c0-2.16,1.71-3.83,4.27-3.83s4.27,1.58,4.27,3.7a3.94,3.94,0,0,1-4.27,4C1211.83,803.84,1210.12,802.17,1210.12,800Zm.83,7.14h6.88v23.7H1211Z" transform="translate(-748.31 -611.43)"/><path class="cls-1" d="M1231.26,819c0-7.14,5.51-12.2,13-12.2s13,5.06,13,12.2-5.47,12.21-13,12.21S1231.26,826.14,1231.26,819Zm19.08,0c0-4.1-2.6-6.56-6-6.56s-6.08,2.46-6.08,6.56,2.64,6.57,6.08,6.57S1250.34,823.1,1250.34,819Z" transform="translate(-748.31 -611.43)"/><path class="cls-1" d="M1294.93,817.28v13.57h-6.87V818.34c0-3.83-1.76-5.6-4.81-5.6-3.3,0-5.68,2-5.68,6.39v11.72h-6.87v-23.7h6.56v2.77a10.41,10.41,0,0,1,7.85-3.12C1290.7,806.8,1294.93,810.06,1294.93,817.28Z" transform="translate(-748.31 -611.43)"/><path class="cls-1" d="M1330.93,817.33v13.52h-6.44v-3c-1.27,2.16-3.74,3.31-7.22,3.31-5.55,0-8.86-3.09-8.86-7.19s2.95-7.09,10.18-7.09h5.46c0-2.95-1.76-4.67-5.46-4.67a11.44,11.44,0,0,0-6.83,2.2l-2.47-4.8a18.25,18.25,0,0,1,10.23-2.86C1326.74,806.8,1330.93,810.14,1330.93,817.33Zm-6.88,6v-2.42h-4.71c-3.22,0-4.23,1.19-4.23,2.78s1.45,2.86,3.88,2.86A5.06,5.06,0,0,0,1324.05,823.36Z" transform="translate(-748.31 -611.43)"/><path class="cls-1" d="M1346,798.16h6.87v32.69H1346Z" transform="translate(-748.31 -611.43)"/><path class="cls-1" d="M1419.44,800l-13.35,30.84h-7L1385.74,800h7.71l9.38,22,9.52-22Z" transform="translate(-748.31 -611.43)"/><path class="cls-1" d="M1429.93,800c0-2.16,1.72-3.83,4.27-3.83s4.28,1.58,4.28,3.7a4,4,0,0,1-4.28,4C1431.65,803.84,1429.93,802.17,1429.93,800Zm.83,7.14h6.88v23.7h-6.88Z" transform="translate(-748.31 -611.43)"/><path class="cls-1" d="M1450.55,828.65l2.29-4.93a16.26,16.26,0,0,0,8.24,2.29c3.17,0,4.36-.84,4.36-2.16,0-3.88-14.32.09-14.32-9.39,0-4.49,4.05-7.66,11-7.66a19.4,19.4,0,0,1,9.12,2.07l-2.29,4.89a13.61,13.61,0,0,0-6.83-1.76c-3.08,0-4.41,1-4.41,2.2,0,4,14.32.13,14.32,9.47,0,4.41-4.09,7.54-11.19,7.54C1456.8,831.21,1452.75,830.1,1450.55,828.65Z" transform="translate(-748.31 -611.43)"/><path class="cls-1" d="M1508.93,807.15v23.7h-6.52V828a9.61,9.61,0,0,1-7.36,3.18c-6,0-10.14-3.35-10.14-10.67V807.15h6.88v12.38c0,4,1.76,5.73,4.8,5.73s5.46-2,5.46-6.39V807.15Z" transform="translate(-748.31 -611.43)"/><path class="cls-1" d="M1545.1,817.33v13.52h-6.43v-3c-1.28,2.16-3.75,3.31-7.23,3.31-5.55,0-8.86-3.09-8.86-7.19s3-7.09,10.18-7.09h5.47c0-2.95-1.77-4.67-5.47-4.67a11.44,11.44,0,0,0-6.83,2.2l-2.47-4.8a18.25,18.25,0,0,1,10.23-2.86C1540.91,806.8,1545.1,810.14,1545.1,817.33Zm-6.87,6v-2.42h-4.72c-3.22,0-4.23,1.19-4.23,2.78s1.45,2.86,3.88,2.86A5.08,5.08,0,0,0,1538.23,823.36Z" transform="translate(-748.31 -611.43)"/><path class="cls-1" d="M1560.12,798.16H1567v32.69h-6.88Z" transform="translate(-748.31 -611.43)"/><path class="cls-1" d="M1601.54,827.81l2.42-5.37a18.18,18.18,0,0,0,10.18,3.21c4.23,0,5.95-1.41,5.95-3.3,0-5.77-17.94-1.81-17.94-13.26,0-5.25,4.23-9.61,13-9.61a20.75,20.75,0,0,1,10.71,2.73l-2.2,5.42a17.45,17.45,0,0,0-8.55-2.42c-4.23,0-5.86,1.59-5.86,3.52,0,5.69,17.93,1.77,17.93,13.09,0,5.16-4.27,9.56-13.09,9.56C1609.2,831.38,1604.27,829.93,1601.54,827.81Z" transform="translate(-748.31 -611.43)"/><path class="cls-1" d="M1664.28,807.15v23.7h-6.52V828a9.61,9.61,0,0,1-7.36,3.18c-6,0-10.14-3.35-10.14-10.67V807.15h6.88v12.38c0,4,1.76,5.73,4.8,5.73s5.46-2,5.46-6.39V807.15Z" transform="translate(-748.31 -611.43)"/><path class="cls-1" d="M1678.64,800c0-2.16,1.72-3.83,4.27-3.83s4.28,1.58,4.28,3.7a4,4,0,0,1-4.28,4C1680.36,803.84,1678.64,802.17,1678.64,800Zm.84,7.14h6.87v23.7h-6.87Z" transform="translate(-748.31 -611.43)"/><path class="cls-1" d="M1716.84,829.71a9.85,9.85,0,0,1-5.6,1.5c-5.59,0-8.85-2.87-8.85-8.51V813h-3.66v-5.28h3.66v-5.77h6.87v5.77h5.91V813h-5.91v9.65c0,2,1.1,3.13,3,3.13a4.65,4.65,0,0,0,2.78-.88Z" transform="translate(-748.31 -611.43)"/><path class="cls-1" d="M1751.87,820.94h-17.93c.66,2.95,3.17,4.76,6.78,4.76a8,8,0,0,0,6-2.29l3.66,4c-2.21,2.51-5.51,3.84-9.79,3.84-8.19,0-13.52-5.16-13.52-12.21s5.42-12.2,12.64-12.2c7,0,12.34,4.67,12.34,12.29C1752,819.62,1751.91,820.37,1751.87,820.94Zm-18-4h11.67a5.92,5.92,0,0,0-11.67,0Z" transform="translate(-748.31 -611.43)"/><path class="cls-1" d="M922.56,760.15l6,4.78L914.44,779l-16.37-14.25q-5.36-4.63-8.18-7.21c-1.89-1.71-3.42-3.16-4.58-4.32.07,1.58.13,3.21.21,4.89s.1,3.34.1,5V782.9h-21.4V714.05h21.4v16c0,2.13,0,4.22-.1,6.28s-.18,4-.31,5.76c1.36-1.24,3-2.76,5-4.58s4.51-4,7.67-6.64l19.87-16.77h30.86l-26.34,19.76q-3.39,2.58-6,4.53c-1.74,1.3-3.31,2.44-4.68,3.39s-2.62,1.82-3.76,2.58-2.25,1.47-3.34,2.16q3,2.06,7.21,5.14T922.56,760.15Z" transform="translate(-748.31 -611.43)"/><polygon class="cls-2" points="202.76 171.47 170.55 171.47 166.13 167.61 180.24 153.5 202.76 171.47"/><path class="cls-2" d="M1069.49,771.24l-11.67,11.66H997.48l12.87-17.71h23.72c2.23,0,4.16.07,5.81.21-1-1.24-2.07-2.79-3.35-4.68s-2.48-3.66-3.65-5.3l-12.34-18.21L988.21,782.9H963l44.16-62.27a23.51,23.51,0,0,1,5.45-5.35,13.88,13.88,0,0,1,8.33-2.36,14.09,14.09,0,0,1,8.09,2.21,21,21,0,0,1,5.5,5.5Z" transform="translate(-748.31 -611.43)"/><polygon class="cls-3" points="329.23 171.47 309.51 171.47 321.18 159.81 329.23 171.47"/><polygon class="cls-3" points="368.75 112.23 368.75 171.47 347.45 171.47 347.45 133.53 368.75 112.23"/><polygon class="cls-2" points="368.75 102.62 368.75 112.23 347.45 133.53 347.45 102.62 368.75 102.62"/><path class="cls-4" d="M1238.29,782.9h-28.51l-10.41-12.38L1233.86,736c.08.84.11,1.71.11,2.61a23.15,23.15,0,0,1-1.24,7.62,20.93,20.93,0,0,1-9.21,11.37,23,23,0,0,1-7.56,2.83,47.81,47.81,0,0,1,3.91,3.39q2.16,2.07,5.76,5.67Z" transform="translate(-748.31 -611.43)"/><path class="cls-4" d="M1339.61,721.46q-12.6-8.55-37.72-8.54t-37.77,8.54q-12.55,8.53-12.55,27t12.5,27.07q12.51,8.53,37.82,8.54t37.77-8.54q12.55-8.55,12.56-27.07T1339.61,721.46Zm-10.14,36a11.5,11.5,0,0,1-5,5.41,24.11,24.11,0,0,1-9,2.62,138.06,138.06,0,0,1-27.17,0,24.11,24.11,0,0,1-9-2.62,11.55,11.55,0,0,1-5-5.41,27.07,27.07,0,0,1,0-18,11.36,11.36,0,0,1,5-5.36,25.12,25.12,0,0,1,9-2.57,138.06,138.06,0,0,1,27.17,0,25.12,25.12,0,0,1,9,2.57,11.31,11.31,0,0,1,5,5.36,26.9,26.9,0,0,1,0,18Z" transform="translate(-748.31 -611.43)"/><polygon class="cls-5" points="712.78 102.62 699.1 120.53 654.93 120.53 672.85 102.62 712.78 102.62"/><path class="cls-5" d="M1463,760.36a26.06,26.06,0,0,1-1.65,9.47,16.72,16.72,0,0,1-5.25,7.1,25.34,25.34,0,0,1-9.21,4.42,51,51,0,0,1-13.42,1.55H1369.3L1383,765.19h52.08q3.81,0,5.56-1.18a4.33,4.33,0,0,0,1.75-3.86,4.19,4.19,0,0,0-1.75-3.8q-1.75-1.14-5.56-1.14H1397.6a40.73,40.73,0,0,1-11.53-1.44,29.19,29.19,0,0,1-3.39-1.23l11.87-11.88a12,12,0,0,0,5.11.86h37.46q12.66,0,19.24,4.68T1463,760.36Z" transform="translate(-748.31 -611.43)"/><path class="cls-6" d="M913.87,622.43l-19.74,19.74c-1.38-.1-2.76-.17-4.14-.22a93.17,93.17,0,0,0-36,5.66,76,76,0,0,0-30.3,20.52,75.14,75.14,0,0,0-16.81,32.57,96.9,96.9,0,0,0-2.11,30.87L780.31,756a127.24,127.24,0,0,1-4.5-18.48l-27.5-7.2v-27.4l27,1.47a92.52,92.52,0,0,1,4-16.81l-22.81-15.15,12.16-20.76L793.27,662a81.88,81.88,0,0,1,11.12-11.37l-14.9-18.86,20.17-11.18,18.77,15.69a97.49,97.49,0,0,1,15.33-4.74l-6.28-18.58L861,611.43,872.47,629a131.3,131.3,0,0,1,16.72,1.67L890.48,615l23.2,6.68Z" transform="translate(-748.31 -611.43)"/><path class="cls-1" d="M999.61,683.41l-7.37,10.4-.87,1.25c-1.93-2.26-3.83-4.53-5.87-6.68a156.11,156.11,0,0,0-27.41-23.48,143.67,143.67,0,0,0-32.42-16.13,121.15,121.15,0,0,0-31.54-6.6l19.74-19.74,4.1,16a163.16,163.16,0,0,1,15.76,7L941,634.21l20.32,12.92-2.07,14.19c4.56,3.43,8.95,7.07,13.12,10.89l.06.06h0l11.43-6.1Z" transform="translate(-748.31 -611.43)"/><polygon class="cls-6" points="8.32 154.39 30.69 145.88 12.8 163.76 8.32 154.39"/><path class="cls-2" d="M1013.26,827.46l-17.13,17.13-1-.79a85.39,85.39,0,0,1-11.78,8.9l1.22,3.46-19,19L958,863.66a106.11,106.11,0,0,1-16.55,3l-.71,21.64H914.36l-5.19-22.57a144.2,144.2,0,0,1-19-4.28l-10.55,19.94-28.35-11.55,4.82-23.1c-2-1.14-3.94-2.31-5.87-3.54l13.85-13.85a143.09,143.09,0,0,0,29.57,16.39,130.88,130.88,0,0,0,35.17,9A102,102,0,0,0,965,852.59,78.43,78.43,0,0,0,997,836a71.73,71.73,0,0,0,12-13.48,2.61,2.61,0,0,0,.17-.28l1.67,2.15Z" transform="translate(-748.31 -611.43)"/><polygon class="cls-3" points="242.07 261.05 221.83 270.65 217.26 263.73 236.25 244.73 242.07 261.05"/><polygon class="cls-3" points="274.68 228.61 262.42 244.73 247.82 233.16 264.95 216.03 274.68 228.61"/><path class="cls-1" d="M990.79,695.86l-.42.59-.06-.07h0a144.52,144.52,0,0,0-20.41-18.71c-1.06-.81-2.14-1.59-3.22-2.36l-.06,0a129.65,129.65,0,0,0-42.9-20.15,98.78,98.78,0,0,0-40.34-2.19l7.44-7.45a117.09,117.09,0,0,1,33.94,6,142.25,142.25,0,0,1,32.12,15.27,154.91,154.91,0,0,1,27.76,22.43c2.11,2.13,4.1,4.35,6.1,6.57C990.74,695.81,990.77,695.83,990.79,695.86Z" transform="translate(-748.31 -611.43)"/><path class="cls-1" d="M874,819.44l-7.11,7.11a149.11,149.11,0,0,1-28.14-26.31c-15-18.2-25.72-40.26-28.89-63.59-.43-3.1-.74-6.21-.91-9.33l15.68-15.69a89.36,89.36,0,0,0-.79,16.79C825.45,763.74,845.6,797.13,874,819.44Z" transform="translate(-748.31 -611.43)"/><path class="cls-2" d="M1008.78,821.68c-.1.15-.19.31-.29.47a71.46,71.46,0,0,1-12.25,12.93,76.6,76.6,0,0,1-31.76,15.32,100.27,100.27,0,0,1-35.31,1.52,127.36,127.36,0,0,1-34.15-9.4,149.85,149.85,0,0,1-28.09-16l7.11-7.11c20.44,16,45.14,26.3,70.35,27.47,16.57.76,31.14-2.68,43-9.19a66.56,66.56,0,0,0,20.42-17.25Z" transform="translate(-748.31 -611.43)"/><path class="cls-6" d="M890.81,645.49l-7.44,7.45c-30.7,5-54,26.17-58.7,58.69L809,727.32a90.87,90.87,0,0,1,2.1-25.6,71.15,71.15,0,0,1,15.67-30.83,72.3,72.3,0,0,1,28.59-19.58,93.7,93.7,0,0,1,34.56-5.84C890.2,645.47,890.51,645.47,890.81,645.49Z" transform="translate(-748.31 -611.43)"/><line class="cls-7" x1="60.68" y1="115.89" x2="56.42" y2="120.14"/><line class="cls-7" x1="32" y1="144.57" x2="30.69" y2="145.88"/><line class="cls-7" x1="145.82" y1="30.74" x2="142.5" y2="34.06"/><path class="cls-1" d="M864.09,829.39l-13.85,13.85q-6.18-3.87-12-8.28l-20.28,13.46-24-22.19L809.64,808a164.23,164.23,0,0,1-12.85-17.37L770.11,794l-9-18.82L779,757.31l1.53-.59c-.08-.25-.15-.48-.22-.72l24.42-24.43q.24,2.86.62,5.71c3.45,24.31,14.67,47,30.22,65.63a154.46,154.46,0,0,0,26.45,25C862.71,828.4,863.39,828.9,864.09,829.39Z" transform="translate(-748.31 -611.43)"/><line class="cls-7" x1="118.62" y1="215.13" x2="115.78" y2="217.96"/><path class="cls-3" d="M1233.86,736l-34.49,34.49-4.92-5.84h-32.73V782.9h-21.3V747.7h59.89a15.73,15.73,0,0,0,8.34-2.06,6.33,6.33,0,0,0,3.4-5.66,6.71,6.71,0,0,0-3.09-6q-3.07-2-8.65-2h-59.89l13.9-17.91h44.25a71.53,71.53,0,0,1,12.14,1.08,37.25,37.25,0,0,1,11.43,3.86,24.51,24.51,0,0,1,8.48,7.51A19,19,0,0,1,1233.86,736Z" transform="translate(-748.31 -611.43)"/><path class="cls-4" d="M1421.16,714.05,1403.25,732h-3.59a11.38,11.38,0,0,0-5.51,1,3.89,3.89,0,0,0-1.8,3.7,4,4,0,0,0,1.8,3.76l.4.21-11.87,11.88h0a21.37,21.37,0,0,1-4.63-2.78,15.82,15.82,0,0,1-4.73-6.23,20.49,20.49,0,0,1-1.55-8.08,22.08,22.08,0,0,1,1.7-8.79,17,17,0,0,1,5.25-6.74,26,26,0,0,1,9.16-4.33,51.1,51.1,0,0,1,13.43-1.54Z" transform="translate(-748.31 -611.43)"/><polygon class="cls-8" points="852.41 68.04 831.63 95.03 776.93 95.03 803.9 68.04 852.41 68.04"/><polygon class="cls-8" points="846.51 108.53 826.97 133.81 768.32 133.81 768.32 171.82 736.06 171.82 736.06 135.95 768.32 103.65 768.32 108.53 846.51 108.53"/><polygon class="cls-9" points="985.18 68.04 958.21 95.03 980.26 95.03 1000.89 68.04 985.18 68.04"/><polygon class="cls-8" points="883.15 145.13 862.51 171.82 881.52 171.82 908.17 145.13 883.15 145.13"/><path class="cls-9" d="M1752,749.27a39.14,39.14,0,0,1-2.48,14.28,25.4,25.4,0,0,1-7.91,10.7,38.34,38.34,0,0,1-13.89,6.67,77.1,77.1,0,0,1-20.24,2.33h-77.64l26.64-26.69H1710c3.84,0,6.62-.59,8.38-1.79s2.64-3.11,2.64-5.81-.88-4.6-2.64-5.74-4.54-1.7-8.38-1.7h-38.44l20.61-20.63h20.94q19.1,0,29,7.05T1752,749.27Z" transform="translate(-748.31 -611.43)"/><polygon class="cls-5" points="803.9 68.04 776.93 95.03 768.32 95.03 768.32 103.65 736.06 135.95 736.06 68.04 803.9 68.04"/><path class="cls-8" d="M1645.58,713.6c0,2.68.9,4.57,2.72,5.65s4.57,1.64,8.3,1.64h35.52l-20.61,20.63h-18a61.12,61.12,0,0,1-17.37-2.18,35.07,35.07,0,0,1-12.11-6,23.92,23.92,0,0,1-7.13-9.39,31,31,0,0,1-2.33-12.18,33.43,33.43,0,0,1,2.56-13.26A25.66,25.66,0,0,1,1625,688.3a39.09,39.09,0,0,1,13.8-6.51,76.79,76.79,0,0,1,20.25-2.32h74.42l-27,27H1656.6c-3.73,0-6.5.51-8.3,1.55S1645.58,710.9,1645.58,713.6Z" transform="translate(-748.31 -611.43)"/></svg>